# xmcd
#
# Track frame offsets: 
#        150
#        29349
#        46953
#        71074
#        92900
#        116196
#        138315
#        155446
#        183445
#        218291
#        222800
#
# Disc length: 3221 seconds
#
# Revision: 0
# Processed by: cddbd v1.5.2PL0 Copyright (c) Steve Scherf et al.
# Submitted via: ExactAudioCopy v0.99pb5
#
DISCID=9b0c930b
DTITLE=Joe Satriani - Black Swans and Wormhole Wizards
DYEAR=2010
DGENRE=Blues
TTITLE0=Premonition
TTITLE1=Dream Song
TTITLE2=Pyrrhic Victoria
TTITLE3=Light Years Away
TTITLE4=Solitude
TTITLE5=Littleworth Lane
TTITLE6=The Golden Room
TTITLE7=Two Sides To Every Story
TTITLE8=Wormhole Wizards
TTITLE9=Wind In The Trees
TTITLE10=God Is Crying
EXTD=
EXTT0=
EXTT1=
EXTT2=
EXTT3=
EXTT4=
EXTT5=
EXTT6=
EXTT7=
EXTT8=
EXTT9=
EXTT10=
PLAYORDER=
